<svg width="9" height="9" viewBox="0 0 9 9" fill="none" xmlns="http://www.w3.org/2000/svg">
<path d="M7.9814 3.10343L5.74986 2.77911L4.7523 0.756748C4.72505 0.701377 4.68023 0.656553 4.62486 0.629307C4.48599 0.560752 4.31724 0.617881 4.24781 0.756748L3.25025 2.77911L1.01871 3.10343C0.957183 3.11222 0.900933 3.14122 0.857867 3.18517C0.805802 3.23868 0.777112 3.31067 0.778101 3.38533C0.77909 3.45999 0.809677 3.5312 0.863141 3.58331L2.47769 5.15743L2.09625 7.38019C2.0873 7.43189 2.09302 7.48507 2.11276 7.53369C2.1325 7.58231 2.16547 7.62443 2.20793 7.65526C2.25038 7.6861 2.30063 7.70442 2.35297 7.70815C2.40531 7.71189 2.45765 7.70088 2.50406 7.67638L4.50005 6.62696L6.49605 7.67638C6.55054 7.70538 6.61382 7.71505 6.67447 7.7045C6.8274 7.67813 6.93023 7.53312 6.90386 7.38019L6.52242 5.15743L8.13697 3.58331C8.18091 3.54024 8.20991 3.48399 8.2187 3.42247C8.24243 3.26866 8.13521 3.12628 7.9814 3.10343Z" fill="#F9CC2F"/>
</svg>
