<svg width="20" height="20" viewBox="0 0 20 20" fill="none" xmlns="http://www.w3.org/2000/svg">
<path d="M19.8 1.24878L15.531 8.70244C14.5043 7.57073 13.2503 6.82276 11.7688 6.45854L14.7512 1.24878C14.9462 0.910569 15.2321 0.617886 15.6089 0.370732C15.9858 0.123577 16.3497 0 16.7006 0H19.2152C19.566 0 19.8 0.123577 19.9169 0.370732C20.0339 0.617886 19.9949 0.910569 19.8 1.24878ZM16.2327 13.7561C16.2327 14.8878 15.9566 15.9317 15.4043 16.8878C14.8519 17.8439 14.095 18.6016 13.1333 19.161C12.1716 19.7203 11.1255 20 9.9949 20C8.86429 20 7.81816 19.7203 6.8565 19.161C5.89483 18.6016 5.13785 17.8439 4.58554 16.8878C4.03323 15.9317 3.75708 14.8878 3.75708 13.7561C3.75708 12.6244 4.03323 11.5772 4.58554 10.6146C5.13785 9.65203 5.89483 8.89106 6.8565 8.33171C7.81816 7.77236 8.86429 7.49268 9.9949 7.49268C11.1255 7.49268 12.1716 7.77236 13.1333 8.33171C14.095 8.89106 14.8519 9.65203 15.4043 10.6146C15.9566 11.5772 16.2327 12.6244 16.2327 13.7561ZM11.8662 16.2537H11.2425V12.4878C11.2425 11.7984 10.9988 11.2098 10.5115 10.722C10.0241 10.2341 9.43609 9.99024 8.74733 9.99024V10.0098V9.99024C8.5654 9.99024 8.41595 10.052 8.29899 10.1756C8.18203 10.2992 8.12355 10.4488 8.12355 10.6244C8.12355 10.8 8.18203 10.9496 8.29899 11.0732C8.41595 11.1967 8.5654 11.2585 8.74733 11.2585V11.239C9.09821 11.252 9.39386 11.3789 9.63427 11.6195C9.87469 11.8602 9.9949 12.1496 9.9949 12.4878V16.2537H9.37112C9.20217 16.2537 9.05598 16.3154 8.93252 16.439C8.80906 16.5626 8.74733 16.7089 8.74733 16.878C8.74733 17.0472 8.80906 17.1935 8.93252 17.3171C9.05598 17.4407 9.20217 17.5024 9.37112 17.5024H11.8662C12.0352 17.5024 12.1814 17.4407 12.3048 17.3171C12.4283 17.1935 12.49 17.0472 12.49 16.878C12.49 16.7089 12.4283 16.5626 12.3048 16.439C12.1814 16.3154 12.0352 16.2537 11.8662 16.2537ZM0.189829 1.24878C-0.00510316 0.910569 -0.0440895 0.617886 0.0728696 0.370732C0.189829 0.123577 0.423747 0 0.774624 0H3.28924C3.64012 0 4.00399 0.123577 4.38086 0.370732C4.75773 0.617886 5.04363 0.910569 5.23856 1.24878L8.22102 6.45854C6.73954 6.82276 5.48548 7.57073 4.45883 8.70244L0.189829 1.24878Z" fill="#FFCF53"/>
</svg>
