<svg width="58" height="58" viewBox="0 0 58 58" fill="none" xmlns="http://www.w3.org/2000/svg">
<path d="M58 29C58 12.9837 45.0163 0 29 0C12.9837 0 0 12.9837 0 29C0 45.0163 12.9837 58 29 58C45.0163 58 58 45.0163 58 29Z" fill="#D73D32"/>
<path d="M24.3602 10.4402C22.9782 10.4405 21.5639 10.5883 20.1659 10.8859C18.0989 11.3473 16.4042 12.4468 14.9917 14.0972C13.5788 15.7334 12.8484 17.5495 12.8487 19.6317C12.8484 21.8326 13.6838 23.7068 15.2603 25.163C16.8516 26.6221 18.756 27.3029 20.9718 27.3029C21.4178 27.3029 21.8891 27.2886 22.4859 27.2144C22.4545 27.3343 22.4716 27.4516 22.3973 27.6601C22.3202 27.8543 22.266 28.0774 22.2203 28.1973C22.1746 28.3144 22.0685 28.4631 22.0371 28.643C22.0086 28.8058 22.0371 28.9117 22.0371 29.0887C22.0371 30.071 22.5149 31.2469 23.4658 32.4832C22.3379 32.5118 21.1778 32.5687 20.0773 32.7458C18.9769 32.9114 17.802 33.1805 16.5973 33.5517C15.3929 33.9086 14.338 34.4547 13.386 35.1543C12.4343 35.8396 11.719 36.615 11.243 37.5659C10.6928 38.6652 10.4402 39.692 10.4402 40.5971C10.4402 41.5965 10.6197 42.475 11.066 43.2773C11.512 44.094 12.1497 44.8233 12.8487 45.3287C13.5474 45.8484 14.3531 46.2346 15.2603 46.5772C16.1823 46.9342 17.0421 47.2318 17.9344 47.3831C18.8416 47.5316 19.7341 47.5602 20.6116 47.5602C24.5962 47.5602 27.7186 46.5618 29.9801 44.6144C32.0617 42.7984 33.1062 40.7501 33.109 38.3687C33.1062 37.5207 33.0029 36.6914 32.7488 35.9632C32.5118 35.218 32.1687 34.6054 31.7689 34.0828C31.3806 33.5489 30.9942 33.1027 30.5173 32.6572C30.0434 32.1975 29.5656 31.7799 29.0887 31.4087C28.6147 31.0375 28.1512 30.6799 27.7486 30.3372C27.3631 29.9946 27.023 29.64 26.7718 29.2688C26.5319 28.8976 26.4146 28.4943 26.4146 28.1088C26.4146 27.572 26.6062 27.0512 26.9488 26.5886C27.2915 26.1146 27.7062 25.6827 28.1973 25.2516C28.6885 24.8033 29.2234 24.3457 29.7145 23.826C30.2056 23.3034 30.6204 22.6202 30.963 21.7716C31.3028 20.9087 31.4118 19.9293 31.4118 18.8288C31.4118 17.5202 31.1853 16.1961 30.6028 14.9917C30.0232 13.7867 29.1625 12.8922 28.1088 12.2229H31.1431L34.1744 10.4402H24.3602V10.4402ZM21.3289 12.0459C22.3097 12.0462 23.2149 12.3273 24.003 12.9372C24.8054 13.5469 25.4289 14.3232 25.8743 15.2603C26.3369 16.1971 26.7118 17.1917 26.9488 18.203C27.2029 19.1996 27.306 20.1677 27.306 21.0603C27.306 22.5485 26.9798 23.7208 26.323 24.6288C25.6863 25.5197 24.6452 25.9659 23.2032 25.9659C22.4437 25.9659 21.7442 25.8171 21.0603 25.4317C20.3761 25.0462 19.7502 24.5227 19.2745 23.9145C18.7985 23.2892 18.3829 22.5459 18.026 21.7716C17.6691 20.9983 17.4016 20.2284 17.2231 19.4546C17.0595 18.6814 16.9514 18.0076 16.9514 17.3086C16.9514 15.8809 17.3561 14.5892 18.1145 13.563C18.8729 12.5368 19.9458 12.0462 21.3289 12.0459V12.0459ZM38.9945 19.0059V24.7173H33.283V27.5716H38.9945V33.283H41.8487V27.5716H47.5602V24.7173H41.8487V19.0059H38.9945V19.0059ZM24.3174 33.805C24.5145 33.8011 24.6802 33.8046 24.8059 33.8203C24.8944 33.8774 25.0747 34.0118 25.4317 34.266C25.8029 34.5172 26.0261 34.7086 26.146 34.7971C26.2802 34.8885 26.5289 35.0833 26.8572 35.3375C27.1999 35.5887 27.4374 35.7375 27.5716 35.8717C27.72 35.9916 27.9289 36.2403 28.1973 36.4944C28.4629 36.7485 28.7032 36.926 28.8231 37.1202C28.9545 37.2972 29.0889 37.5661 29.2688 37.8345C29.4601 38.1001 29.6403 38.2916 29.7145 38.5458C29.7887 38.7828 29.8344 39.0547 29.8916 39.3517C29.9687 39.6343 29.9801 39.9289 29.9801 40.243C29.9801 41.1796 29.7742 42.0434 29.3573 42.7401C28.9547 43.4397 28.4482 43.9603 27.7486 44.3458C27.0519 44.7484 26.234 45.0603 25.4317 45.2402C24.6436 45.4315 23.8112 45.5058 22.9346 45.5058C21.9838 45.5058 21.0142 45.3744 20.0773 45.1517C19.1405 44.9289 18.2628 44.6313 17.4002 44.1687C16.5524 43.7233 15.8839 43.0968 15.3488 42.2944C14.8283 41.5063 14.546 40.6311 14.546 39.6203C14.546 38.7266 14.7672 37.9083 15.1687 37.2087C15.5705 36.5091 16.0611 35.9314 16.6859 35.5145C17.3103 35.0976 18.0844 34.8002 18.9173 34.5346C19.75 34.2662 20.5557 34.0116 21.3289 33.9088C22.1013 33.8032 22.8435 33.8203 23.6459 33.8203C23.8914 33.8203 24.1204 33.809 24.3174 33.805V33.805Z" fill="white"/>
</svg>
