<svg width="52" height="52" viewBox="0 0 52 52" fill="none" xmlns="http://www.w3.org/2000/svg">
<circle cx="26" cy="26" r="26" fill="url(#paint0_linear_534:5)"/>
<path d="M16.4102 37.7734V40H15.6602V34.3125H17.7578C18.3802 34.3125 18.8672 34.4714 19.2188 34.7891C19.5729 35.1068 19.75 35.5273 19.75 36.0508C19.75 36.6029 19.5768 37.0286 19.2305 37.3281C18.8867 37.625 18.3932 37.7734 17.75 37.7734H16.4102ZM16.4102 37.1602H17.7578C18.1589 37.1602 18.4661 37.0664 18.6797 36.8789C18.8932 36.6888 19 36.4154 19 36.0586C19 35.7201 18.8932 35.4492 18.6797 35.2461C18.4661 35.043 18.1732 34.9375 17.8008 34.9297H16.4102V37.1602ZM22.6367 36.4219C22.5273 36.4036 22.4089 36.3945 22.2812 36.3945C21.8073 36.3945 21.4857 36.5964 21.3164 37V40H20.5938V35.7734H21.2969L21.3086 36.2617C21.5456 35.8841 21.8815 35.6953 22.3164 35.6953C22.457 35.6953 22.5638 35.7135 22.6367 35.75V36.4219ZM23.0352 37.8477C23.0352 37.4336 23.1159 37.0612 23.2773 36.7305C23.4414 36.3997 23.668 36.1445 23.957 35.9648C24.2487 35.7852 24.5807 35.6953 24.9531 35.6953C25.5286 35.6953 25.9935 35.8945 26.3477 36.293C26.7044 36.6914 26.8828 37.2214 26.8828 37.8828V37.9336C26.8828 38.3451 26.8034 38.7148 26.6445 39.043C26.4883 39.3685 26.263 39.6224 25.9688 39.8047C25.6771 39.987 25.3411 40.0781 24.9609 40.0781C24.388 40.0781 23.9232 39.8789 23.5664 39.4805C23.2122 39.082 23.0352 38.5547 23.0352 37.8984V37.8477ZM23.7617 37.9336C23.7617 38.4023 23.8698 38.7786 24.0859 39.0625C24.3047 39.3464 24.5964 39.4883 24.9609 39.4883C25.3281 39.4883 25.6198 39.3451 25.8359 39.0586C26.0521 38.7695 26.1602 38.3659 26.1602 37.8477C26.1602 37.3841 26.0495 37.0091 25.8281 36.7227C25.6094 36.4336 25.3177 36.2891 24.9531 36.2891C24.5964 36.2891 24.3086 36.431 24.0898 36.7148C23.8711 36.9987 23.7617 37.4049 23.7617 37.9336ZM28.0312 40V36.332H27.3633V35.7734H28.0312V35.4141C28.0312 34.9427 28.1654 34.5755 28.4336 34.3125C28.7044 34.0495 29.0859 33.918 29.5781 33.918C29.8698 33.918 30.2383 33.9974 30.6836 34.1562L30.5625 34.7656C30.237 34.6354 29.9271 34.5703 29.6328 34.5703C29.3229 34.5703 29.099 34.6406 28.9609 34.7812C28.8255 34.9193 28.7578 35.1276 28.7578 35.4062V35.7734H29.6211V36.332H28.7578V40H28.0312ZM31.043 40H30.3164V35.7734H31.043V40ZM33.0039 40H32.2812V34H33.0039V40ZM35.918 40.0781C35.3451 40.0781 34.8789 39.8906 34.5195 39.5156C34.1602 39.138 33.9805 38.6341 33.9805 38.0039V37.8711C33.9805 37.4518 34.0599 37.0781 34.2188 36.75C34.3802 36.4193 34.6042 36.1615 34.8906 35.9766C35.1797 35.7891 35.4922 35.6953 35.8281 35.6953C36.3776 35.6953 36.8047 35.8763 37.1094 36.2383C37.4141 36.6003 37.5664 37.1185 37.5664 37.793V38.0938H34.7031C34.7135 38.5104 34.8346 38.8477 35.0664 39.1055C35.3008 39.3607 35.5977 39.4883 35.957 39.4883C36.2122 39.4883 36.4284 39.4362 36.6055 39.332C36.7826 39.2279 36.9375 39.0898 37.0703 38.918L37.5117 39.2617C37.1576 39.806 36.6263 40.0781 35.918 40.0781ZM35.8281 36.2891C35.5365 36.2891 35.2917 36.3958 35.0938 36.6094C34.8958 36.8203 34.7734 37.1172 34.7266 37.5H36.8438V37.4453C36.8229 37.0781 36.724 36.7943 36.5469 36.5938C36.3698 36.3906 36.1302 36.2891 35.8281 36.2891Z" fill="white"/>
<path fill-rule="evenodd" clip-rule="evenodd" d="M29.0001 18.3333C29.0001 19.0406 28.7191 19.7189 28.219 20.2189C27.7189 20.719 27.0407 21 26.3334 21C25.6262 21 24.9479 20.719 24.4478 20.2189C23.9477 19.7189 23.6667 19.0406 23.6667 18.3333C23.6667 17.6261 23.9477 16.9478 24.4478 16.4477C24.9479 15.9476 25.6262 15.6667 26.3334 15.6667C27.0407 15.6667 27.7189 15.9476 28.219 16.4477C28.7191 16.9478 29.0001 17.6261 29.0001 18.3333V18.3333ZM27.6667 18.3333C27.6667 18.687 27.5263 19.0261 27.2762 19.2761C27.0262 19.5262 26.687 19.6667 26.3334 19.6667C25.9798 19.6667 25.6407 19.5262 25.3906 19.2761C25.1406 19.0261 25.0001 18.687 25.0001 18.3333C25.0001 17.9797 25.1406 17.6406 25.3906 17.3905C25.6407 17.1405 25.9798 17 26.3334 17C26.687 17 27.0262 17.1405 27.2762 17.3905C27.5263 17.6406 27.6667 17.9797 27.6667 18.3333V18.3333Z" fill="white"/>
<path fill-rule="evenodd" clip-rule="evenodd" d="M26.3333 13C22.2833 13 19 16.2833 19 20.3333C19 24.3833 22.2833 27.6667 26.3333 27.6667C30.3833 27.6667 33.6667 24.3833 33.6667 20.3333C33.6667 16.2833 30.3833 13 26.3333 13ZM20.3333 20.3333C20.3333 21.7267 20.8087 23.0093 21.6053 24.028C22.1648 23.2933 22.8866 22.6978 23.7143 22.2882C24.542 21.8786 25.4532 21.6659 26.3767 21.6667C27.2882 21.6658 28.1879 21.873 29.0073 22.2725C29.8266 22.672 30.544 23.2533 31.1047 23.972C31.6823 23.2144 32.0712 22.3301 32.2393 21.3924C32.4073 20.4546 32.3496 19.4904 32.071 18.5793C31.7924 17.6683 31.3008 16.8367 30.637 16.1534C29.9732 15.47 29.1562 14.9546 28.2536 14.6497C27.351 14.3448 26.3888 14.2592 25.4466 14.4C24.5043 14.5408 23.6092 14.9039 22.8352 15.4594C22.0612 16.0148 21.4305 16.7466 20.9955 17.5941C20.5604 18.4417 20.3335 19.3806 20.3333 20.3333V20.3333ZM26.3333 26.3333C24.956 26.3354 23.6202 25.8616 22.552 24.992C22.982 24.3765 23.5542 23.8739 24.2201 23.5271C24.886 23.1803 25.6259 22.9995 26.3767 23C27.1181 22.9994 27.849 23.1757 28.5086 23.5143C29.1682 23.8528 29.7376 24.3439 30.1693 24.9467C29.0929 25.8445 27.7351 26.3353 26.3333 26.3333V26.3333Z" fill="white"/>
<defs>
<linearGradient id="paint0_linear_534:5" x1="12.5" y1="7.5" x2="52" y2="52" gradientUnits="userSpaceOnUse">
<stop offset="0.135028" stop-color="#E8FD68"/>
<stop offset="0.883573" stop-color="#A4BE00"/>
</linearGradient>
</defs>
</svg>
