<svg width="316" height="388" viewBox="0 0 316 388" fill="none" xmlns="http://www.w3.org/2000/svg">
<path fill-rule="evenodd" clip-rule="evenodd" d="M136.93 2.30196C167.408 -3.79057 201.604 12.1098 221.445 37.243C240.146 60.932 227.312 96.5411 234.835 126.32C241.717 153.561 268.456 175.474 263.358 203.147C258.168 231.317 234.193 253.203 209.312 264.855C186.698 275.445 161.659 261.389 136.93 262.352C110.712 263.373 83.6931 283.683 60.5536 270.65C37.1592 257.474 33.2215 224.725 23.753 198.609C13.6965 170.872 -6.45347 141.91 3.8581 114.277C14.1578 86.6757 50.8958 85.445 72.8868 66.9405C96.5651 47.0163 107.163 8.25269 136.93 2.30196Z" stroke="#76C7F5"/>
<path fill-rule="evenodd" clip-rule="evenodd" d="M147.267 2.40174C180.062 -4.15773 216.859 12.9613 238.209 40.0207C258.332 65.5253 244.522 103.864 252.617 135.925C260.022 165.253 288.795 188.846 283.309 218.64C277.725 248.969 251.926 272.533 225.153 285.077C200.82 296.479 173.877 281.345 147.267 282.383C119.056 283.482 89.9816 305.348 65.0824 291.317C39.9089 277.131 35.6718 241.871 25.4833 213.754C14.662 183.891 -7.02027 152.709 4.07545 122.958C15.1583 93.2421 54.6902 91.9171 78.3535 71.9944C103.832 50.5431 115.236 8.80856 147.267 2.40174Z" stroke="#76C7F5" stroke-opacity="0.7"/>
<path fill-rule="evenodd" clip-rule="evenodd" d="M160.705 2.53004C196.513 -4.62979 236.691 14.0561 260.002 43.5921C281.974 71.431 266.895 113.278 275.734 148.274C283.819 180.287 315.236 206.039 309.246 238.559C303.148 271.664 274.979 297.385 245.747 311.077C219.178 323.523 189.76 307.004 160.705 308.136C129.902 309.337 98.1565 333.204 70.9698 317.888C43.4836 302.404 38.8572 263.917 27.7326 233.227C15.9172 200.63 -7.75712 166.594 4.358 134.121C16.4591 101.685 59.6228 100.238 85.4602 78.4922C113.28 55.0776 125.731 9.52324 160.705 2.53004Z" stroke="#76C7F5" stroke-opacity="0.5"/>
<path fill-rule="evenodd" clip-rule="evenodd" d="M182.705 24.53C218.513 17.3702 258.691 36.0561 282.002 65.5921C303.974 93.431 288.895 135.278 297.734 170.274C305.819 202.287 337.236 228.039 331.246 260.559C325.148 293.664 296.979 319.385 267.747 333.077C241.178 345.523 211.76 329.004 182.705 330.136C151.902 331.337 120.157 355.204 92.9698 339.888C65.4836 324.404 60.8572 285.917 49.7326 255.227C37.9172 222.63 14.2429 188.594 26.358 156.121C38.4591 123.685 81.6228 122.238 107.46 100.492C135.28 77.0776 147.731 31.5232 182.705 24.53Z" stroke="url(#paint0_linear_108:7)" stroke-opacity="0.3"/>
<path fill-rule="evenodd" clip-rule="evenodd" d="M194.301 71.4112C227.328 64.8073 264.385 82.0424 285.885 109.285C306.151 134.963 292.243 173.561 300.395 205.84C307.853 235.367 336.829 259.12 331.305 289.115C325.681 319.65 299.699 343.374 272.738 356.003C248.232 367.482 221.099 352.246 194.301 353.29C165.89 354.397 136.61 376.412 111.535 362.285C86.1839 348.003 81.9169 312.504 71.6563 284.197C60.7586 254.131 38.923 222.738 50.0972 192.785C61.2584 162.867 101.07 161.533 124.9 141.476C150.559 119.879 162.043 77.8615 194.301 71.4112Z" stroke="url(#paint1_linear_108:7)" stroke-opacity="0.15"/>
<path fill-rule="evenodd" clip-rule="evenodd" d="M215.301 91.4112C248.328 84.8073 285.385 102.042 306.885 129.285C327.151 154.963 313.243 193.561 321.395 225.84C328.853 255.367 357.829 279.12 352.305 309.115C346.681 339.65 320.699 363.374 293.738 376.003C269.232 387.482 242.099 372.246 215.301 373.29C186.89 374.397 157.61 396.412 132.535 382.285C107.184 368.003 102.917 332.504 92.6563 304.197C81.7586 274.131 59.923 242.738 71.0972 212.785C82.2584 182.867 122.07 181.533 145.9 161.476C171.559 139.879 183.043 97.8615 215.301 91.4112Z" stroke="#76C7F5" stroke-opacity="0.05"/>
<path d="M187.621 192.18C187.621 192.18 198.273 194.088 206.773 188.922C218.437 181.832 214.516 159.582 214.516 159.582L217.368 157.544C217.368 157.544 222.05 176.921 216.961 186.884C205.804 208.727 187.214 204.406 187.214 204.406L187.621 192.18Z" fill="#5991C6"/>
<path d="M163.015 103.589C163.015 103.589 175.286 94.5441 184.749 92.1774C197.789 88.9189 220.61 89.7335 221.968 91.9058C223.327 94.0815 220.35 112.228 215.176 121.249C204.581 139.72 185.293 147.058 185.293 147.058L163.015 103.589Z" fill="#76C7F5"/>
<path d="M173.067 107.665C173.067 107.665 175.24 111.738 178.772 118.53C182.147 125.02 186.922 134.832 186.922 134.832C186.922 134.832 196.79 129.207 202.679 122.878C213.547 111.195 213.818 97.883 213.818 97.883C213.818 97.883 202.136 96.2537 190.454 98.1545C180.932 99.7066 171.165 104.946 171.165 104.946L173.067 107.665Z" fill="#F2FFA0"/>
<path d="M171.782 104.628C171.785 104.624 171.789 104.624 171.793 104.621C171.789 104.624 171.785 104.624 171.782 104.628ZM171.795 104.621C173.769 103.619 180.156 100.535 187.053 98.8518C180.161 100.535 173.775 103.615 171.795 104.621ZM187.065 98.8485C187.078 98.8451 187.092 98.8417 187.106 98.8384C187.092 98.8417 187.078 98.8451 187.065 98.8485ZM187.123 98.835C187.134 98.8317 187.144 98.8283 187.156 98.8283C187.144 98.8283 187.134 98.8317 187.123 98.835ZM187.179 98.8216C187.19 98.8183 187.199 98.8149 187.21 98.8149C187.2 98.8149 187.189 98.8183 187.179 98.8216ZM187.233 98.8082C187.243 98.8049 187.253 98.8049 187.263 98.8015C187.253 98.8049 187.243 98.8049 187.233 98.8082ZM187.287 98.7948C187.297 98.7915 187.307 98.7915 187.317 98.7881C187.307 98.7915 187.297 98.7948 187.287 98.7948ZM187.341 98.7814C187.35 98.7814 187.358 98.778 187.366 98.778C187.358 98.778 187.35 98.7814 187.341 98.7814ZM187.396 98.768C187.402 98.768 187.408 98.768 187.414 98.7646C187.408 98.768 187.402 98.768 187.396 98.768ZM187.759 98.6842C187.759 98.6842 187.76 98.6842 187.761 98.6842C187.76 98.6842 187.759 98.6842 187.759 98.6842ZM187.808 98.6741C187.809 98.6741 187.812 98.6741 187.814 98.6741C187.811 98.6741 187.81 98.6741 187.808 98.6741ZM189.985 98.235C189.986 98.235 189.988 98.235 189.989 98.235C189.988 98.235 189.986 98.235 189.985 98.235ZM190.039 98.2249H190.04H190.039ZM190.087 98.2149C190.09 98.2149 190.093 98.2149 190.096 98.2149C190.092 98.2149 190.09 98.2149 190.087 98.2149ZM190.138 98.2082C190.142 98.2082 190.146 98.2048 190.15 98.2048C190.146 98.2048 190.142 98.2082 190.138 98.2082ZM190.189 98.1981C190.195 98.1981 190.2 98.1981 190.207 98.1947C190.201 98.1981 190.195 98.1981 190.189 98.1981ZM190.242 98.1914C190.248 98.188 190.254 98.188 190.26 98.188C190.253 98.188 190.249 98.188 190.242 98.1914ZM190.295 98.1813C190.302 98.1813 190.309 98.178 190.316 98.178C190.309 98.178 190.302 98.1813 190.295 98.1813ZM190.348 98.1713C190.356 98.1713 190.365 98.1679 190.372 98.1679C190.364 98.1679 190.356 98.1713 190.348 98.1713ZM190.401 98.1646C190.419 98.1612 190.436 98.1579 190.454 98.1545C190.436 98.1579 190.419 98.1612 190.401 98.1646Z" fill="#79B0D7"/>
<path d="M177.371 113.488C175.565 111.195 172.556 106.73 171.313 104.869C171.416 104.816 171.574 104.732 171.782 104.628C171.786 104.624 171.789 104.624 171.793 104.621C171.793 104.621 171.794 104.621 171.795 104.621C173.776 103.615 180.161 100.535 187.053 98.8518C187.057 98.8518 187.061 98.8485 187.065 98.8485C187.078 98.8451 187.093 98.8417 187.106 98.8384C187.112 98.8384 187.118 98.835 187.123 98.835C187.134 98.8317 187.145 98.8283 187.156 98.8283C187.163 98.825 187.172 98.8216 187.179 98.8216C187.189 98.8183 187.2 98.8149 187.21 98.8149C187.218 98.8116 187.226 98.8116 187.233 98.8082C187.243 98.8049 187.253 98.8049 187.263 98.8015C187.271 98.7982 187.279 98.7982 187.287 98.7948C187.297 98.7948 187.307 98.7915 187.318 98.7881C187.326 98.7848 187.333 98.7848 187.341 98.7814C187.35 98.7814 187.358 98.7781 187.366 98.7781C187.376 98.7747 187.387 98.7713 187.396 98.768C187.402 98.768 187.408 98.768 187.414 98.7647C187.529 98.7378 187.644 98.711 187.759 98.6842C187.759 98.6842 187.76 98.6842 187.761 98.6842C187.777 98.6808 187.792 98.6775 187.808 98.6741C187.81 98.6741 187.811 98.6741 187.814 98.6741C188.535 98.5099 189.26 98.3624 189.985 98.235C189.986 98.235 189.988 98.235 189.989 98.235C190.005 98.2316 190.022 98.2283 190.039 98.2249H190.04C190.055 98.2216 190.071 98.2182 190.087 98.2149C190.091 98.2149 190.093 98.2149 190.096 98.2149C190.11 98.2115 190.124 98.2115 190.138 98.2082C190.142 98.2082 190.147 98.2048 190.151 98.2048C190.163 98.2048 190.177 98.2014 190.189 98.1981C190.195 98.1981 190.201 98.1981 190.207 98.1948C190.219 98.1948 190.231 98.1914 190.242 98.1914C190.249 98.188 190.253 98.188 190.26 98.188C190.272 98.1847 190.283 98.1847 190.295 98.1813C190.302 98.1813 190.309 98.178 190.316 98.178C190.327 98.1746 190.337 98.1746 190.348 98.1713C190.356 98.1713 190.364 98.1679 190.372 98.1679C190.382 98.1679 190.391 98.1646 190.401 98.1646C190.419 98.1612 190.436 98.1579 190.454 98.1545C194.758 97.4539 199.061 97.2326 202.78 97.2326C209.157 97.2326 213.818 97.883 213.818 97.883C213.818 97.9132 213.796 98.8015 213.584 100.3C212.228 99.9849 210.58 99.8542 208.751 99.8542C204.32 99.8542 198.827 100.618 193.863 101.349C184.017 102.797 177.517 111.584 177.371 113.488Z" fill="#D0EE7C"/>
<path d="M106.281 103.589C106.281 103.589 94.0101 94.5441 84.5475 92.1774C71.507 88.9189 48.6864 89.7335 47.3279 91.9058C45.9697 94.0815 48.9466 112.228 54.1199 121.249C64.7152 139.72 84.0041 147.058 84.0041 147.058L106.281 103.589Z" fill="#76C7F5"/>
<path d="M96.2296 107.665C96.2296 107.665 94.056 111.738 90.5243 118.53C87.1492 125.02 82.3738 134.832 82.3738 134.832C82.3738 134.832 72.5063 129.207 66.6169 122.878C55.7501 111.195 55.4782 97.883 55.4782 97.883C55.4782 97.883 67.1604 96.2537 78.8422 98.1545C88.3641 99.7066 98.1311 104.946 98.1311 104.946L96.2296 107.665Z" fill="#F2FFA0"/>
<path d="M97.9836 104.869C96.9481 104.326 90.6048 101.088 83.4523 99.1636C90.6145 101.091 96.9632 104.336 97.9836 104.869ZM83.448 99.1602C83.3581 99.1368 83.2673 99.1133 83.1771 99.0898C83.2673 99.1133 83.3581 99.1368 83.448 99.1602ZM83.1637 99.0865C83.1506 99.0831 83.1365 99.0798 83.1235 99.0764C83.1369 99.0798 83.1506 99.0831 83.1637 99.0865ZM83.1047 99.0697C83.094 99.0663 83.0829 99.063 83.0718 99.063C83.0826 99.063 83.094 99.0663 83.1047 99.0697ZM83.045 99.0529C83.0363 99.0529 83.0286 99.0496 83.0199 99.0496C83.0286 99.0496 83.0363 99.0529 83.045 99.0529ZM82.9853 99.0395C82.98 99.0362 82.9756 99.0362 82.9706 99.0362C82.976 99.0362 82.98 99.0362 82.9853 99.0395ZM82.9307 99.0261C82.9274 99.0228 82.9227 99.0228 82.919 99.0228C82.923 99.0228 82.927 99.0228 82.9307 99.0261ZM82.8784 99.0127C82.8744 99.0094 82.8714 99.0094 82.8673 99.0094C82.871 99.0094 82.8747 99.0094 82.8784 99.0127ZM82.8234 98.996C82.8221 98.996 82.8204 98.996 82.8194 98.996C82.8204 98.996 82.8221 98.996 82.8234 98.996ZM79.207 98.2149C79.206 98.2149 79.2043 98.2149 79.2029 98.2149C79.2043 98.2149 79.206 98.2149 79.207 98.2149ZM79.1563 98.2082C79.154 98.2082 79.151 98.2048 79.1486 98.2048C79.1513 98.2048 79.1537 98.2082 79.1563 98.2082ZM79.1057 98.1981C79.1017 98.1981 79.0967 98.1981 79.0926 98.1948C79.0973 98.1981 79.101 98.1981 79.1057 98.1981ZM79.0531 98.188C79.0484 98.188 79.0437 98.188 79.039 98.188C79.044 98.188 79.0481 98.188 79.0531 98.188ZM79.0011 98.1813C78.9951 98.1813 78.9884 98.178 78.9827 98.178C78.9887 98.178 78.9951 98.1813 79.0011 98.1813ZM78.9478 98.1713C78.9408 98.1713 78.9337 98.1713 78.927 98.1679C78.9341 98.1713 78.9408 98.1713 78.9478 98.1713ZM78.8952 98.1646C78.8778 98.1612 78.8597 98.1579 78.8422 98.1545C78.86 98.1579 78.8774 98.1612 78.8952 98.1646Z" fill="#79B0D7"/>
<path d="M91.9259 113.488C91.7798 111.584 85.2796 102.797 75.4335 101.349C70.4694 100.618 64.9767 99.8542 60.5459 99.8542C58.7159 99.8542 57.0682 99.9849 55.7122 100.3C55.4977 98.7848 55.4782 97.8897 55.4782 97.883C55.4782 97.883 60.1393 97.2326 66.516 97.2326C70.2358 97.2326 74.5385 97.4539 78.8422 98.1545C78.8596 98.1579 78.8777 98.1612 78.8951 98.1646C78.9055 98.1646 78.9166 98.1679 78.927 98.1679C78.9337 98.1713 78.9407 98.1713 78.9478 98.1713C78.9595 98.1746 78.9709 98.1746 78.9826 98.178C78.9883 98.178 78.995 98.1813 79.0011 98.1813C79.0135 98.1847 79.0265 98.1847 79.039 98.188C79.0436 98.188 79.0483 98.188 79.053 98.188C79.0661 98.1914 79.0795 98.1948 79.0926 98.1948C79.0966 98.1981 79.1016 98.1981 79.1057 98.1981C79.1197 98.2014 79.1345 98.2048 79.1486 98.2048C79.1509 98.2048 79.1539 98.2082 79.1563 98.2082C79.172 98.2115 79.1875 98.2115 79.2029 98.2149C79.2042 98.2149 79.2059 98.2149 79.2069 98.2149C80.4164 98.4261 81.6269 98.6909 82.8194 98.996C82.8204 98.996 82.822 98.996 82.8234 98.996C82.8381 98.9993 82.8525 99.006 82.8673 99.0094C82.8713 99.0094 82.8743 99.0094 82.8784 99.0127C82.8918 99.0161 82.9058 99.0194 82.9189 99.0228C82.9226 99.0228 82.9273 99.0228 82.9307 99.0261C82.9441 99.0295 82.9571 99.0328 82.9705 99.0362C82.9756 99.0362 82.9799 99.0362 82.9853 99.0395C82.9964 99.0429 83.0088 99.0462 83.0198 99.0496C83.0285 99.0496 83.0363 99.0529 83.045 99.0529C83.054 99.0563 83.0627 99.0597 83.0718 99.063C83.0829 99.063 83.0939 99.0663 83.1046 99.0697C83.111 99.0731 83.117 99.0731 83.1234 99.0764C83.1365 99.0798 83.1506 99.0831 83.1636 99.0865C83.1683 99.0865 83.1724 99.0865 83.177 99.0898C83.2672 99.1133 83.3581 99.1368 83.4479 99.1602C83.4496 99.1602 83.4509 99.1636 83.4523 99.1636C90.6048 101.088 96.948 104.326 97.9836 104.869C96.7408 106.73 93.7318 111.195 91.9259 113.488Z" fill="#D0EE7C"/>
<path d="M194.925 232.442C194.159 230.105 194.169 218.047 194.34 207.437H194.461C194.461 207.437 197.689 164.296 186.04 131.094C175.172 100.126 158.405 91.0577 131.976 91.7013C106.478 92.3249 86.8348 109.147 82.6106 130.112C76.2831 161.523 79.5429 209.066 79.5429 209.066H79.6123C79.9076 219.361 80.0447 230.618 79.3394 232.874C77.981 237.222 73.9985 237.437 75.3572 239.525C76.8228 241.781 80.4091 239.562 80.4091 239.562C80.4091 239.562 79.3706 243.561 83.686 244.285C87.9341 244.996 88.033 240.752 88.033 240.752C88.033 240.752 91.93 242.844 93.2994 240.99C94.9716 238.724 92.3796 238.037 91.2927 235.864C90.2063 233.689 90.8593 222.928 92.4476 217.185C93.5572 213.172 101.378 209.012 106.533 207.859C126.075 203.494 145.085 203.394 165.552 206.773C170.353 207.567 180.193 212.11 181.6 216.934C183.268 222.653 184.07 233.404 183.013 235.593C181.957 237.782 179.374 238.506 181.078 240.749C182.473 242.582 186.341 240.437 186.341 240.437C186.341 240.437 186.498 244.681 190.736 243.91C195.041 243.125 193.947 239.139 193.947 239.139C193.947 239.139 197.563 241.312 198.998 239.036C200.327 236.927 196.343 236.766 194.925 232.442Z" fill="#76C7F5"/>
<path d="M124.512 126.207C124.512 135.885 116.666 143.733 106.989 143.733C97.3112 143.733 89.4658 135.885 89.4658 126.207C89.4658 116.532 97.3112 108.684 106.989 108.684C116.666 108.684 124.512 116.532 124.512 126.207Z" fill="#5991C6"/>
<path d="M122.746 126.207C122.746 134.909 115.691 141.966 106.989 141.966C98.2864 141.966 91.2318 134.909 91.2318 126.207C91.2318 117.507 98.2864 110.451 106.989 110.451C115.691 110.451 122.746 117.507 122.746 126.207Z" fill="white"/>
<path d="M118.399 126.207C118.399 132.509 113.291 137.618 106.989 137.618C100.687 137.618 95.5786 132.509 95.5786 126.207C95.5786 119.908 100.687 114.799 106.989 114.799C113.291 114.799 118.399 119.908 118.399 126.207Z" fill="#4EB1B7"/>
<path d="M99.6762 126.458C100.494 117.008 111.199 117.29 111.721 117.4C110.239 115.949 107.645 115.59 105.019 115.861C100.425 116.337 96.3256 120.618 96.3256 125.644C96.3256 130.065 99.1804 134.695 103.027 135.513C101.328 133.847 99.4449 129.13 99.6762 126.458Z" fill="#53E6E6"/>
<path d="M111.267 125.959C111.267 128.436 109.261 130.441 106.785 130.441C104.309 130.441 102.302 128.436 102.302 125.959C102.302 123.485 104.309 121.477 106.785 121.477C109.261 121.477 111.267 123.485 111.267 125.959Z" fill="#231F20"/>
<path d="M107.193 124.463C107.193 125.566 106.301 126.458 105.2 126.458C104.1 126.458 103.208 125.566 103.208 124.463C103.208 123.364 104.1 122.472 105.2 122.472C106.301 122.472 107.193 123.364 107.193 124.463Z" fill="white"/>
<path d="M110.317 124.101C110.317 124.779 109.77 125.325 109.095 125.325C108.419 125.325 107.872 124.779 107.872 124.101C107.872 123.428 108.419 122.881 109.095 122.881C109.77 122.881 110.317 123.428 110.317 124.101Z" fill="white"/>
<path d="M178.929 124.899C178.929 134.577 171.084 142.422 161.406 142.422C151.728 142.422 143.883 134.577 143.883 124.899C143.883 115.221 151.728 107.377 161.406 107.377C171.084 107.377 178.929 115.221 178.929 124.899Z" fill="#5991C6"/>
<path d="M177.163 124.899C177.163 133.602 170.108 140.655 161.406 140.655C152.704 140.655 145.649 133.602 145.649 124.899C145.649 116.197 152.704 109.143 161.406 109.143C170.108 109.143 177.163 116.197 177.163 124.899Z" fill="white"/>
<path d="M172.817 124.899C172.817 131.202 167.708 136.311 161.406 136.311C155.104 136.311 149.996 131.202 149.996 124.899C149.996 118.597 155.104 113.488 161.406 113.488C167.708 113.488 172.817 118.597 172.817 124.899Z" fill="#4EB1B7"/>
<path d="M154.093 125.147C154.911 115.697 165.616 115.982 166.138 116.093C164.656 114.641 162.063 114.282 159.437 114.554C154.842 115.027 150.743 119.311 150.743 124.333C150.743 128.758 153.597 133.387 157.444 134.205C155.745 132.539 153.862 127.822 154.093 125.147Z" fill="#53E6E6"/>
<path d="M165.685 124.651C165.685 127.125 163.678 129.133 161.203 129.133C158.727 129.133 156.72 127.125 156.72 124.651C156.72 122.174 158.727 120.169 161.203 120.169C163.678 120.169 165.685 122.174 165.685 124.651Z" fill="#231F20"/>
<path d="M161.61 123.156C161.61 124.256 160.718 125.147 159.618 125.147C158.517 125.147 157.625 124.256 157.625 123.156C157.625 122.056 158.517 121.165 159.618 121.165C160.718 121.165 161.61 122.056 161.61 123.156Z" fill="white"/>
<path d="M164.734 122.794C164.734 123.468 164.187 124.018 163.512 124.018C162.837 124.018 162.289 123.468 162.289 122.794C162.289 122.12 162.837 121.57 163.512 121.57C164.187 121.57 164.734 122.12 164.734 122.794Z" fill="white"/>
<path d="M101.979 148.687C101.979 148.687 117.781 154.346 135.169 153.984C152.556 153.622 172.659 146.106 172.659 146.106C172.659 146.106 157.065 157.94 134.761 157.38C113.163 156.837 101.979 148.687 101.979 148.687Z" fill="#5991C6"/>
<path d="M113.264 151.731C113.264 151.731 112 154.732 112.625 158.57C113.291 162.66 114.663 164.276 115.206 164.276C115.75 164.276 115.764 161.312 116.268 158.54C116.853 155.322 118.608 152.77 118.608 152.77L113.264 151.731Z" fill="white"/>
<path d="M160.639 149.857C160.639 149.857 162.019 152.807 161.544 156.666C161.037 160.776 159.729 162.445 159.186 162.469C158.643 162.489 158.514 159.529 157.902 156.776C157.193 153.585 155.34 151.101 155.34 151.101L160.639 149.857Z" fill="white"/>
<path d="M81.1685 158.543C77.2744 159.344 76.6623 172.797 82.6897 180.109C89.4819 188.352 102.125 192.123 109.114 192.432C113.118 192.606 114.748 192.153 114.748 190.886C114.748 189.726 112.503 189.75 112.503 189.75C112.503 189.75 114.657 189.257 114.476 187.356C114.338 185.901 110.34 185.965 110.34 185.965C110.34 185.965 112.031 185.905 111.668 184.457C111.352 183.189 109.061 183.451 106.326 183.008C103.518 182.556 96.4547 179.656 92.1081 167.977C89.1128 159.924 87.6706 157.199 81.1685 158.543Z" fill="#5991C6"/>
<path d="M154.98 166.884C154.98 166.884 151.248 158.037 143.568 159.217C137.68 160.122 126.301 173.967 136.221 183.622C146.141 193.276 156.24 192.341 161.09 186.411C167.366 178.734 166.461 173.233 163.651 170.179C160.842 167.128 154.98 166.884 154.98 166.884Z" fill="#F2FFA0"/>
<path d="M146.377 159.116C141.564 159.076 138.475 159.924 135.957 163.582C133.439 167.236 133.314 169.639 133.314 169.639C133.314 169.639 134.571 170.856 136.926 170.863C139.28 170.87 141.043 168.074 141.043 168.074C141.043 168.074 141.888 169.804 144.089 169.941C146.29 170.082 148.77 167.685 148.77 167.685C148.77 167.685 151.423 170.179 153.249 170.35C157.782 170.782 158.425 167.614 158.425 167.614C158.425 167.614 154.011 159.18 146.377 159.116Z" fill="white"/>
<path d="M139.795 186.015L135.974 187.159L137.526 187.909L136.692 189.425L138.735 189.006L138.96 190.575L141.074 186.944L139.795 186.015Z" fill="#5991C6"/>
<path d="M192.078 162.214C197.008 166.615 190.462 177.075 182 181.342C172.465 186.153 159.373 184.517 152.852 181.982C149.116 180.531 147.807 179.462 148.317 178.298C148.784 177.239 150.829 178.164 150.829 178.164C150.829 178.164 149.056 176.843 149.988 175.177C150.7 173.9 154.334 175.569 154.334 175.569C154.334 175.569 152.809 174.835 153.724 173.655C154.525 172.623 156.517 173.783 159.198 174.48C161.95 175.194 169.583 175.385 178.265 166.444C184.249 160.283 187 157.678 192.078 162.214Z" fill="#5991C6"/>
<path d="M157.582 166.072C157.582 166.072 160.027 163.9 163.694 161.999C167.362 160.095 169.264 160.095 169.264 160.095L169.671 162.677C169.671 162.677 166.411 163.086 164.238 164.038C162.064 164.986 158.425 167.614 158.425 167.614L157.582 166.072Z" fill="#5991C6"/>
<path d="M215.991 159.961C215.991 159.961 209.475 165.439 207.298 161.999C203.087 155.342 211.101 142.844 211.101 142.844C211.101 142.844 220.746 146.921 223.734 150.317C225.458 152.274 227.402 157.38 224.549 159.009C221.697 160.642 215.991 159.961 215.991 159.961Z" fill="#F2FFA0"/>
<path d="M210.228 161.282C209.552 161.282 208.885 161.041 208.385 160.333C207.608 159.237 207.57 156.227 208.249 153.645C208.928 151.064 211.305 145.087 211.305 145.087L211.984 146.274C211.984 146.274 211.082 151.265 210.456 154.289C209.655 158.161 211.972 158.194 212.05 158.194C212.051 158.194 212.052 158.194 212.052 158.194L213.139 160.199C213.139 160.199 211.664 161.282 210.228 161.282Z" fill="#D0EE7C"/>
<path d="M132.769 143.344C133.493 144.792 141.281 144.973 141.643 143.344C142.006 141.714 138.202 135.737 136.753 135.918C135.304 136.099 132.044 141.896 132.769 143.344Z" fill="#5991C6"/>
<defs>
<linearGradient id="paint0_linear_108:7" x1="332" y1="313" x2="122" y2="79.5" gradientUnits="userSpaceOnUse">
<stop stop-color="#76C7F5"/>
<stop offset="1" stop-color="white" stop-opacity="0"/>
</linearGradient>
<linearGradient id="paint1_linear_108:7" x1="287" y1="367" x2="134" y2="70" gradientUnits="userSpaceOnUse">
<stop stop-color="#76C7F5"/>
<stop offset="1" stop-color="white" stop-opacity="0"/>
</linearGradient>
</defs>
</svg>
