<svg width="96" height="169" viewBox="0 0 96 169" fill="none" xmlns="http://www.w3.org/2000/svg">
<g filter="url(#filter0_d_108:2383)">
<path d="M67.9065 43.9496C67.9065 43.9496 68.0364 33.7871 70.5859 27.8046C74.1011 19.5613 83.7168 7.75807 85.4181 7.9101C87.1214 8.0633 95.5697 16.9475 98.2834 23.3277C103.839 36.3926 99.9783 49.5989 99.9783 49.5989L67.9065 43.9496Z" fill="#76C7F5"/>
<path d="M74.1183 40.2465C74.1183 40.2465 77.158 40.7301 82.1896 41.5855C86.9975 42.4033 94.1351 43.8131 94.1351 43.8131C94.1351 43.8131 95.1155 36.304 94.1208 30.6265C92.2833 20.1487 85.3161 14.6477 85.3161 14.6477C85.3161 14.6477 79.7494 20.202 76.059 27.1769C73.0526 32.8631 71.9078 40.1635 71.9078 40.1635L74.1183 40.2465Z" fill="#F2FFA0"/>
<path d="M71.9866 39.7075C71.9863 39.7042 71.9878 39.7022 71.9875 39.6989C71.9878 39.7022 71.9863 39.7042 71.9866 39.7075ZM71.9881 39.698C72.2497 38.2452 73.1805 33.6087 75.0612 29.2652C73.1824 33.6062 72.2506 38.2403 71.9881 39.698ZM75.064 29.2578C75.0677 29.2492 75.0716 29.2403 75.0754 29.2317C75.0716 29.2403 75.0677 29.2492 75.064 29.2578ZM75.0803 29.2214C75.083 29.2142 75.0854 29.2073 75.0898 29.2014C75.0854 29.2073 75.0829 29.2144 75.0803 29.2214ZM75.0959 29.1861C75.0984 29.179 75.1004 29.1727 75.1047 29.167C75.1007 29.1723 75.098 29.1796 75.0959 29.1861ZM75.1104 29.152C75.1126 29.1455 75.1168 29.1399 75.1187 29.1336C75.1166 29.1401 75.1126 29.1455 75.1104 29.152ZM75.1249 29.1181C75.1272 29.1114 75.1312 29.106 75.1336 29.0992C75.1314 29.1059 75.1288 29.1129 75.1249 29.1181ZM75.1396 29.0838C75.143 29.0794 75.1445 29.0737 75.1478 29.0693C75.1445 29.0737 75.1431 29.0792 75.1396 29.0838ZM75.1546 29.0492C75.1569 29.0462 75.1593 29.043 75.1599 29.0386C75.1593 29.043 75.1569 29.0462 75.1546 29.0492ZM75.2559 28.8228C75.256 28.8227 75.2564 28.8221 75.2567 28.8218C75.2564 28.8221 75.2562 28.8225 75.2559 28.8228ZM75.2702 28.7928C75.2709 28.7919 75.272 28.7904 75.2727 28.7896C75.2717 28.7908 75.2712 28.7915 75.2702 28.7928ZM75.9131 27.4584C75.9135 27.4579 75.914 27.4572 75.9145 27.4565C75.914 27.4572 75.9135 27.4579 75.9131 27.4584ZM75.9292 27.4261L75.9296 27.4255L75.9292 27.4261ZM75.9432 27.3964C75.9446 27.3946 75.9457 27.3931 75.947 27.3914C75.9455 27.3933 75.9447 27.3944 75.9432 27.3964ZM75.9602 27.3666C75.9619 27.3643 75.9619 27.3606 75.9635 27.3585C75.9619 27.3606 75.9619 27.3643 75.9602 27.3666ZM75.9755 27.3353C75.978 27.3319 75.9801 27.3292 75.981 27.3243C75.9803 27.3288 75.9778 27.3322 75.9755 27.3353ZM75.9932 27.3044C75.9939 27.2999 75.9963 27.2966 75.9986 27.2936C75.996 27.297 75.9941 27.2995 75.9932 27.3044ZM76.009 27.2724C76.0119 27.2686 76.0132 27.2632 76.0159 27.2596C76.0132 27.2632 76.0119 27.2686 76.009 27.2724ZM76.0252 27.24C76.0283 27.2359 76.0301 27.2297 76.0331 27.2258C76.0298 27.2301 76.0285 27.2355 76.0252 27.24ZM76.0429 27.2091C76.0483 27.1983 76.0536 27.1876 76.059 27.1768C76.0535 27.1877 76.0484 27.1982 76.0429 27.2091Z" fill="#79B0D7"/>
<path d="M78.9454 40.3018C77 40.339 73.4154 40.1419 71.9264 40.0537C71.9395 39.9772 71.9583 39.8597 71.9867 39.7074C71.9864 39.7041 71.9879 39.7022 71.9876 39.6989C71.9877 39.6987 71.9881 39.6981 71.9883 39.698C72.2507 38.2403 73.1825 33.6062 75.0613 29.2652C75.0628 29.2632 75.0627 29.2597 75.0641 29.2578C75.0679 29.2491 75.0718 29.2403 75.0755 29.2316C75.0777 29.2288 75.0783 29.2242 75.0805 29.2214C75.083 29.2143 75.0855 29.2073 75.09 29.2014C75.0912 29.1961 75.093 29.1899 75.096 29.186C75.0981 29.1795 75.1008 29.1723 75.1049 29.1669C75.106 29.1617 75.1094 29.1572 75.1106 29.1519C75.1127 29.1454 75.1168 29.1401 75.1189 29.1336C75.1204 29.1279 75.1236 29.1237 75.1251 29.118C75.129 29.1129 75.1315 29.1058 75.1338 29.0991C75.1352 29.0935 75.1383 29.0894 75.1398 29.0838C75.1433 29.0791 75.1446 29.0737 75.148 29.0692C75.1501 29.0627 75.1526 29.0557 75.1548 29.0491C75.1571 29.0461 75.1595 29.0429 75.16 29.0385C75.192 28.9666 75.224 28.8947 75.256 28.8228C75.2563 28.8224 75.2566 28.8221 75.2568 28.8217C75.2615 28.8118 75.2657 28.8026 75.2704 28.7927C75.2713 28.7915 75.2719 28.7908 75.2728 28.7895C75.4759 28.3397 75.689 27.8953 75.9132 27.4584C75.9136 27.4579 75.9141 27.4571 75.9147 27.4564C75.9195 27.4464 75.9245 27.4361 75.9293 27.426L75.9297 27.4255C75.9343 27.4158 75.939 27.4059 75.9434 27.3963C75.9449 27.3943 75.9457 27.3933 75.9472 27.3913C75.951 27.3825 75.9564 27.3754 75.9603 27.3665C75.9621 27.3642 75.962 27.3605 75.9637 27.3584C75.9688 27.3516 75.9724 27.3432 75.9756 27.3352C75.9779 27.3322 75.9805 27.3288 75.9811 27.3242C75.9857 27.3182 75.9889 27.3102 75.9934 27.3044C75.9943 27.2994 75.9962 27.2969 75.9987 27.2936C76.0018 27.2858 76.0063 27.2799 76.0092 27.2723C76.012 27.2686 76.0134 27.2631 76.0161 27.2596C76.0187 27.2524 76.0228 27.247 76.0253 27.2399C76.0287 27.2355 76.03 27.2301 76.0332 27.2258C76.0371 27.2206 76.0391 27.2143 76.043 27.2091C76.0486 27.1981 76.0537 27.1877 76.0592 27.1767C77.4185 24.607 79.0322 22.2307 80.529 20.2534C83.0949 16.8636 85.3162 14.6476 85.3162 14.6476C85.3319 14.66 85.7956 15.0289 86.5067 15.7447C85.7937 16.3386 85.0611 17.162 84.3248 18.1346C82.5421 20.4898 80.738 23.7174 79.1292 26.6501C75.9369 32.467 77.9922 39.4578 78.9454 40.3018Z" fill="#D0EE7C"/>
<path d="M45.0775 74.1084C45.0775 74.1084 35.3318 76.9921 30.266 81.0699C23.2866 86.6909 14.5368 99.1498 15.145 100.746C15.755 102.344 26.599 108.063 33.4761 108.943C47.5586 110.743 59.2211 103.442 59.2211 103.442L45.0775 74.1084Z" fill="#76C7F5"/>
<path d="M43.1999 81.092C43.1999 81.092 44.4904 83.8864 46.6797 88.4967C48.7717 92.9024 52.0661 99.3893 52.0661 99.3893C52.0661 99.3893 45.1053 102.371 39.371 102.955C28.7879 104.031 21.6021 98.8186 21.6021 98.8186C21.6021 98.8186 25.4367 91.953 31.1478 86.508C35.8044 82.0708 42.5198 78.9873 42.5198 78.9873L43.1999 81.092Z" fill="#F2FFA0"/>
<path d="M42.4193 79.0346C41.7139 79.3666 37.44 81.4355 33.5391 84.4633C37.4457 81.4317 41.7253 79.3626 42.4193 79.0346ZM33.5355 84.4643C33.4869 84.5026 33.4379 84.5415 33.3891 84.58C33.4379 84.5415 33.4869 84.5026 33.5355 84.4643ZM33.3819 84.5857C33.3749 84.5913 33.3674 84.5975 33.3604 84.6031C33.3676 84.5973 33.3749 84.5913 33.3819 84.5857ZM33.3493 84.6104C33.3432 84.6147 33.337 84.6192 33.3325 84.6251C33.3368 84.6194 33.3432 84.6147 33.3493 84.6104ZM33.3164 84.6353C33.3129 84.64 33.308 84.6427 33.3045 84.6474C33.308 84.6427 33.3129 84.64 33.3164 84.6353ZM33.2852 84.6617C33.2813 84.6632 33.2795 84.6655 33.2775 84.6682C33.2797 84.6653 33.2813 84.6632 33.2852 84.6617ZM33.2561 84.6853C33.253 84.6857 33.2511 84.6882 33.2496 84.6902C33.2512 84.6881 33.2528 84.6859 33.2561 84.6853ZM33.2279 84.7077C33.2245 84.7085 33.2233 84.7101 33.2217 84.7123C33.2232 84.7103 33.2247 84.7083 33.2279 84.7077ZM33.1969 84.7302C33.1964 84.7309 33.1957 84.7318 33.1953 84.7323C33.1957 84.7318 33.1964 84.7309 33.1969 84.7302ZM31.3265 86.3384C31.3261 86.3389 31.3254 86.3398 31.3248 86.3405C31.3254 86.3398 31.3261 86.3389 31.3265 86.3384ZM31.3025 86.3626C31.3016 86.3638 31.2986 86.3641 31.2977 86.3653C31.2987 86.3639 31.3015 86.364 31.3025 86.3626ZM31.2768 86.3854C31.2752 86.3876 31.2732 86.3902 31.2698 86.391C31.2735 86.3899 31.2749 86.3879 31.2768 86.3854ZM31.2503 86.4094C31.2484 86.4119 31.2465 86.4144 31.2446 86.4168C31.2467 86.4142 31.2483 86.412 31.2503 86.4094ZM31.2258 86.4343C31.2234 86.4375 31.2189 86.4397 31.2166 86.4427C31.2191 86.4395 31.2234 86.4375 31.2258 86.4343ZM31.199 86.4586C31.1962 86.4623 31.1934 86.4661 31.1889 86.4683C31.1935 86.4659 31.1962 86.4623 31.199 86.4586ZM31.1743 86.4839C31.1655 86.4918 31.1564 86.5 31.1476 86.508C31.1566 86.4999 31.1654 86.4919 31.1743 86.4839Z" fill="#79B0D7"/>
<path d="M44.5636 85.7228C43.4926 85.0343 36.2063 84.9542 31.4745 89.6054C29.0885 91.9502 26.472 94.5625 24.6891 96.9178C23.9527 97.8906 23.3592 98.8191 22.9811 99.6668C22.0893 99.1711 21.6056 98.8213 21.6021 98.8186C21.6021 98.8186 23.1319 96.0791 25.6979 92.6893C27.1946 90.712 29.0436 88.5138 31.1478 86.5079C31.1566 86.5 31.1657 86.4917 31.1745 86.4838C31.1786 86.4783 31.1849 86.4738 31.1891 86.4682C31.1935 86.466 31.1964 86.4623 31.1992 86.4585C31.2057 86.4537 31.2103 86.4476 31.2168 86.4427C31.2191 86.4397 31.2236 86.4375 31.226 86.4343C31.2328 86.429 31.238 86.4221 31.2448 86.4168C31.2467 86.4143 31.2486 86.4118 31.2505 86.4093C31.2575 86.4037 31.2647 86.398 31.27 86.391C31.2734 86.3902 31.2754 86.3875 31.277 86.3854C31.2844 86.3793 31.2922 86.3728 31.2978 86.3653C31.2988 86.364 31.3018 86.3638 31.3027 86.3625C31.3108 86.3555 31.317 86.3473 31.325 86.3405C31.3256 86.3397 31.3262 86.3389 31.3266 86.3383C31.9256 85.7803 32.5535 85.2434 33.1955 84.7323C33.1959 84.7318 33.1966 84.7309 33.1971 84.7302C33.2048 84.7237 33.2142 84.7187 33.2219 84.7122C33.2235 84.7101 33.2247 84.7085 33.2281 84.7077C33.2353 84.7019 33.2427 84.6958 33.2498 84.6902C33.2513 84.6882 33.2532 84.6857 33.2563 84.6853C33.2635 84.6795 33.2705 84.6739 33.2777 84.6681C33.2797 84.6654 33.2815 84.6631 33.2854 84.6616C33.2916 84.6571 33.2984 84.6519 33.3047 84.6473C33.3082 84.6427 33.313 84.6399 33.3165 84.6353C33.322 84.6318 33.3273 84.6286 33.3327 84.6251C33.3371 84.6192 33.3434 84.6147 33.3495 84.6103C33.3538 84.6083 33.3562 84.6051 33.3606 84.6031C33.3676 84.5975 33.3751 84.5913 33.3821 84.5857C33.384 84.5832 33.3856 84.5811 33.3893 84.5799C33.4381 84.5414 33.4871 84.5026 33.5357 84.4643C33.5364 84.4634 33.5387 84.464 33.5393 84.4633C37.4402 81.4354 41.7141 79.3665 42.4195 79.0346C42.9085 80.4439 44.0713 83.8402 44.5636 85.7228Z" fill="#D0EE7C"/>
<path d="M149.243 78.8359C147.692 78.3027 141.287 73.4453 135.715 69.0849L135.764 69.0205C135.764 69.0205 114.13 49.9456 91.7929 42.7781C70.9577 36.0935 59.3902 41.3581 49.0977 55.6661C39.169 69.4715 40.2072 86.6823 49.6522 97.364C63.8038 113.367 90.3883 130.765 90.3883 130.765L90.4162 130.728C96.0077 134.713 102.047 139.17 102.962 140.453C104.727 142.925 103.239 145.128 104.896 145.246C106.685 145.375 106.948 142.576 106.948 142.576C106.948 142.576 108.656 144.737 110.778 142.734C112.865 140.762 110.648 139.002 110.648 139.002C110.648 139.002 113.329 137.772 112.894 136.298C112.362 134.497 110.954 135.599 109.362 135.302C107.768 135.004 102.311 130.327 99.8971 127.172C98.2105 124.967 99.1461 119.136 100.607 115.932C106.151 103.787 113.746 93.6413 123.778 84.1214C126.133 81.8885 132.507 78.4855 135.637 79.6788C139.349 81.0935 145.386 84.9933 146.125 86.4358C146.863 87.8782 146.209 89.5423 148.087 89.5393C149.623 89.5356 150.039 86.6162 150.039 86.6162C150.039 86.6162 152.358 88.2402 153.653 85.6773C154.969 83.0729 152.41 82.0505 152.41 82.0505C152.41 82.0505 155.02 81.0024 154.387 79.3239C153.801 77.7687 152.112 79.8221 149.243 78.8359Z" fill="#76C7F5"/>
<path d="M64.4368 73.5185C69.5815 77.4129 70.5963 84.7412 66.7023 89.8856C62.808 95.0302 55.4794 96.0428 50.3346 92.1484C45.1917 88.2554 44.1768 80.9271 48.0711 75.7825C51.9652 70.6381 59.2938 69.6255 64.4368 73.5185Z" fill="#5991C6"/>
<path d="M63.7263 74.457C68.3525 77.9589 69.2648 84.5487 65.7631 89.1747C62.2613 93.8008 55.6714 94.7114 51.0453 91.2096C46.4209 87.7091 45.5084 81.1195 49.0102 76.4934C52.5119 71.8674 59.1019 70.9566 63.7263 74.457Z" fill="white"/>
<path d="M61.977 76.768C65.3272 79.304 65.9874 84.0754 63.4517 87.4253C60.9159 90.7753 56.1445 91.435 52.7943 88.899C49.4459 86.3644 48.7855 81.5931 51.3214 78.2431C53.8571 74.8932 58.6286 74.2333 61.977 76.768Z" fill="#4EB1B7"/>
<path d="M54.5767 86.8219C49.8822 82.5846 54.3394 77.0073 54.6082 76.7744C53.2403 76.9782 52.0061 78.2124 51.0936 79.7177C49.4983 82.3512 50.1242 86.2532 52.7954 88.2752C55.1459 90.0545 58.7557 90.3998 60.7383 88.6842C59.169 88.9169 55.9039 88.0199 54.5767 86.8219Z" fill="#53E6E6"/>
<path d="M58.9756 80.4592C60.2925 81.4561 60.5507 83.3294 59.5545 84.6455C58.5583 85.9615 56.6851 86.2217 55.3681 85.2249C54.053 84.2294 53.7932 82.3545 54.7894 81.0384C55.7855 79.7224 57.6605 79.4637 58.9756 80.4592Z" fill="#231F20"/>
<path d="M56.541 82.0236C57.1273 82.4674 57.2423 83.3004 56.7996 83.8853C56.3568 84.4703 55.5238 84.5857 54.9375 84.1419C54.353 83.6995 54.2379 82.8664 54.6808 82.2814C55.1235 81.6965 55.9565 81.5811 56.541 82.0236Z" fill="white"/>
<path d="M57.6059 80.217C57.9659 80.4895 58.0361 81.0004 57.7644 81.3593C57.4926 81.7184 56.982 81.7893 56.622 81.5169C56.2638 81.2457 56.1935 80.735 56.4653 80.3759C56.737 80.017 57.2477 79.9459 57.6059 80.217Z" fill="white"/>
<path d="M85.6386 44.0653C90.7833 47.9596 91.7965 55.2864 87.9023 60.431C84.0081 65.5756 76.6814 66.5894 71.5366 62.695C66.3919 58.8007 65.3787 51.4738 69.2729 46.3293C73.1671 41.1847 80.4939 40.1709 85.6386 44.0653Z" fill="#5991C6"/>
<path d="M84.9281 45.0038C89.5543 48.5056 90.4649 55.0941 86.9632 59.7201C83.4615 64.346 76.8734 65.258 72.2472 61.7562C67.6211 58.2544 66.7104 51.6661 70.212 47.0401C73.7137 42.4141 80.302 41.502 84.9281 45.0038Z" fill="white"/>
<path d="M83.1791 47.3144C86.5293 49.8504 87.1893 54.622 84.6536 57.9719C82.1179 61.3218 77.3464 61.9816 73.9962 59.4456C70.646 56.9097 69.9858 52.1382 72.5215 48.7884C75.0572 45.4385 79.8288 44.7784 83.1791 47.3144Z" fill="#4EB1B7"/>
<path d="M75.7769 57.3672C71.0824 53.1297 75.5413 47.554 75.8102 47.3211C74.4423 47.5246 73.2081 48.7589 72.2957 50.2642C70.6984 52.8965 71.3261 56.7999 73.9956 58.8206C76.3478 60.6011 79.9576 60.9464 81.9403 59.2307C80.3709 59.4636 77.106 58.5664 75.7769 57.3672Z" fill="#53E6E6"/>
<path d="M80.1774 51.0056C81.4925 52.0012 81.7524 53.8761 80.7563 55.1919C79.76 56.5081 77.8849 56.767 76.5698 55.7715C75.2529 54.7747 74.9948 52.9011 75.9912 51.5849C76.9872 50.269 78.8605 50.0088 80.1774 51.0056Z" fill="#231F20"/>
<path d="M77.7428 52.5703C78.3273 53.0128 78.4424 53.8458 77.9997 54.4306C77.557 55.0155 76.724 55.1309 76.1395 54.6884C75.555 54.246 75.4399 53.413 75.8826 52.8281C76.3253 52.2433 77.1583 52.1279 77.7428 52.5703Z" fill="white"/>
<path d="M78.8076 50.7637C79.1658 51.0348 79.2377 51.547 78.9661 51.9059C78.6944 52.2648 78.1819 52.3346 77.8237 52.0635C77.4655 51.7924 77.3935 51.2801 77.6652 50.9212C77.9369 50.5623 78.4494 50.4925 78.8076 50.7637Z" fill="white"/>
<path d="M67.3199 94.5428C67.3199 94.5428 76.6868 88.4193 83.4907 79.0309C90.2946 69.6425 94.3888 55.9313 94.3888 55.9313C94.3888 55.9313 94.4043 68.9829 85.1319 80.6141C76.1524 91.8767 67.3199 94.5428 67.3199 94.5428Z" fill="#5991C6"/>
<path d="M73.4793 89.7682C73.4793 89.7682 74.5654 91.6476 76.8574 92.8598C79.2994 94.1516 80.7103 94.0726 80.929 93.7837C81.1476 93.4948 79.5781 92.2947 78.3072 90.9111C76.8319 89.3052 76.1818 87.3459 76.1818 87.3459L73.4793 89.7682Z" fill="white"/>
<path d="M91.5463 63.8304C91.5463 63.8304 93.6698 64.2839 95.5295 66.0894C97.5103 68.0127 97.8715 69.3796 97.6655 69.6777C97.4578 69.9743 95.8322 68.852 94.1229 68.0698C92.141 67.1627 90.0752 67.1477 90.0752 67.1477L91.5463 63.8304Z" fill="white"/>
<path d="M64.1854 109.571C63.0444 111.963 69.9494 117.702 76.2614 117.44C83.3765 117.146 90.4688 111.943 93.4451 108.352C95.1487 106.294 95.564 105.245 94.8903 104.735C94.2738 104.269 93.383 105.471 93.383 105.471C93.383 105.471 93.9879 104.128 92.9045 103.459C92.0755 102.947 90.5006 105.098 90.5006 105.098C90.5006 105.098 91.1491 104.175 90.2334 103.785C89.4323 103.443 88.6495 104.766 87.3136 106.042C85.9435 107.352 81.5597 109.941 73.6021 107.551C68.1163 105.904 66.0872 105.574 64.1854 109.571Z" fill="#5991C6"/>
<path d="M110.765 52.0905C115.089 51.2406 118.015 58.9291 116.879 65.1445C115.599 72.1489 109.461 78.4503 105.49 80.8971C103.215 82.2986 102.12 82.5645 101.707 81.825C101.332 81.1505 102.646 80.436 102.646 80.436C102.646 80.436 101.231 80.8467 100.72 79.681C100.328 78.7886 102.677 77.5286 102.677 77.5286C102.677 77.5286 101.674 78.0437 101.415 77.0823C101.188 76.2415 102.606 75.6492 104.056 74.5043C105.543 73.3287 108.715 69.3483 107.456 61.1352C106.589 55.4753 106.311 52.9645 110.765 52.0905Z" fill="#5991C6"/>
<path d="M98.9356 71.9806C98.9356 71.9806 98.7646 69.8069 99.2301 67.0923C99.6936 64.3765 100.459 63.3656 100.459 63.3656L101.995 64.1876C101.995 64.1876 100.901 66.0852 100.532 67.6236C100.162 69.1608 100.095 72.1529 100.095 72.1529L98.9356 71.9806Z" fill="#5991C6"/>
<path d="M76.8689 76.0251C77.9302 76.2227 81.1603 72.1555 80.4399 71.3075C79.7196 70.4593 75.0118 70.076 74.525 70.9191C74.0382 71.7621 75.8075 75.8274 76.8689 76.0251Z" fill="#5991C6"/>
</g>
<defs>
<filter id="filter0_d_108:2383" x="0.11499" y="0.90863" width="169.371" height="167.342" filterUnits="userSpaceOnUse" color-interpolation-filters="sRGB">
<feFlood flood-opacity="0" result="BackgroundImageFix"/>
<feColorMatrix in="SourceAlpha" type="matrix" values="0 0 0 0 0 0 0 0 0 0 0 0 0 0 0 0 0 0 127 0" result="hardAlpha"/>
<feOffset dy="8"/>
<feGaussianBlur stdDeviation="7.5"/>
<feColorMatrix type="matrix" values="0 0 0 0 0 0 0 0 0 0 0 0 0 0 0 0 0 0 0.2 0"/>
<feBlend mode="normal" in2="BackgroundImageFix" result="effect1_dropShadow_108:2383"/>
<feBlend mode="normal" in="SourceGraphic" in2="effect1_dropShadow_108:2383" result="shape"/>
</filter>
</defs>
</svg>
