<svg width="15" height="15" viewBox="0 0 15 15" fill="none" xmlns="http://www.w3.org/2000/svg">
<path d="M7.5 0.9375C6.13298 0.939113 4.8224 1.48288 3.85577 2.44951C2.88913 3.41615 2.34537 4.72672 2.34376 6.09375C2.34212 7.21089 2.70703 8.29771 3.38251 9.1875C3.38251 9.1875 3.52313 9.37266 3.5461 9.39937L7.5 14.0625L11.4558 9.39703C11.4764 9.37219 11.6175 9.1875 11.6175 9.1875L11.618 9.18609C12.2931 8.29669 12.6579 7.21037 12.6563 6.09375C12.6546 4.72672 12.1109 3.41615 11.1442 2.44951C10.1776 1.48288 8.86703 0.939113 7.5 0.9375ZM9.47344 6.42281L7.50141 8.4375L5.52657 6.42281C5.28945 6.17799 5.15686 5.85052 5.15686 5.50969C5.15686 5.16885 5.28945 4.84139 5.52657 4.59656C5.64285 4.47704 5.7819 4.38204 5.93552 4.31717C6.08913 4.2523 6.25419 4.21888 6.42094 4.21888C6.58769 4.21888 6.75275 4.2523 6.90637 4.31717C7.05998 4.38204 7.19904 4.47704 7.31532 4.59656L7.50141 4.78641L7.68563 4.59656C7.80191 4.47704 7.94096 4.38204 8.09458 4.31717C8.2482 4.2523 8.41325 4.21888 8.58001 4.21888C8.74676 4.21888 8.91181 4.2523 9.06543 4.31717C9.21904 4.38204 9.3581 4.47704 9.47438 4.59656C9.7115 4.84139 9.84409 5.16885 9.84409 5.50969C9.84409 5.85052 9.7115 6.17799 9.47438 6.42281H9.47344Z" fill="#FF6464"/>
</svg>
