<svg width="68" height="68" viewBox="0 0 68 68" fill="none" xmlns="http://www.w3.org/2000/svg">
<circle cx="34" cy="34" r="33.5" stroke="#CECECE"/>
<circle cx="54.459" cy="6.52055" r="6.52055" fill="#5394F5"/>
<path d="M56.1124 5.96934L53.7845 8.2977C53.6596 8.42249 53.5032 8.51101 53.3319 8.55381L52.4388 8.77718C52.4061 8.78541 52.3718 8.78503 52.3393 8.77606C52.3068 8.76709 52.2772 8.74984 52.2534 8.726C52.2295 8.70215 52.2123 8.67253 52.2033 8.64003C52.1943 8.60753 52.194 8.57326 52.2022 8.54056L52.4256 7.64788C52.4684 7.47643 52.5571 7.31985 52.6821 7.19492L55.0096 4.86655L56.1124 5.96934ZM56.664 4.31574C56.8102 4.46194 56.8923 4.66021 56.8923 4.86694C56.8923 5.07367 56.8102 5.27194 56.664 5.41814L56.388 5.69335L55.2852 4.59095L55.5612 4.31574C55.6336 4.24331 55.7196 4.18586 55.8142 4.14666C55.9088 4.10746 56.0102 4.08728 56.1126 4.08728C56.215 4.08728 56.3164 4.10746 56.4111 4.14666C56.5057 4.18586 56.5916 4.24331 56.664 4.31574Z" fill="white"/>
<path d="M36.6465 50H30.2012V18.7188H36.6465V50Z" fill="#CECECE"/>
</svg>
