<svg width="15" height="15" viewBox="0 0 15 15" fill="none" xmlns="http://www.w3.org/2000/svg">
<path fill-rule="evenodd" clip-rule="evenodd" d="M10.0001 5.33333C10.0001 6.04058 9.71913 6.71885 9.21903 7.21895C8.71894 7.71905 8.04066 8 7.33341 8C6.62617 8 5.94789 7.71905 5.4478 7.21895C4.9477 6.71885 4.66675 6.04058 4.66675 5.33333C4.66675 4.62609 4.9477 3.94781 5.4478 3.44771C5.94789 2.94762 6.62617 2.66666 7.33341 2.66666C8.04066 2.66666 8.71894 2.94762 9.21903 3.44771C9.71913 3.94781 10.0001 4.62609 10.0001 5.33333ZM8.66675 5.33333C8.66675 5.68695 8.52627 6.02609 8.27622 6.27614C8.02618 6.52619 7.68704 6.66666 7.33341 6.66666C6.97979 6.66666 6.64065 6.52619 6.39061 6.27614C6.14056 6.02609 6.00008 5.68695 6.00008 5.33333C6.00008 4.97971 6.14056 4.64057 6.39061 4.39052C6.64065 4.14047 6.97979 4 7.33341 4C7.68704 4 8.02618 4.14047 8.27622 4.39052C8.52627 4.64057 8.66675 4.97971 8.66675 5.33333Z" fill="white"/>
<path fill-rule="evenodd" clip-rule="evenodd" d="M7.33333 0C3.28333 0 0 3.28333 0 7.33333C0 11.3833 3.28333 14.6667 7.33333 14.6667C11.3833 14.6667 14.6667 11.3833 14.6667 7.33333C14.6667 3.28333 11.3833 0 7.33333 0ZM1.33333 7.33333C1.33333 8.72667 1.80867 10.0093 2.60533 11.028C3.16482 10.2933 3.8866 9.69783 4.71429 9.28821C5.54198 8.87858 6.45316 8.66586 7.37667 8.66667C8.28822 8.6658 9.18794 8.87302 10.0073 9.27252C10.8266 9.67203 11.544 10.2533 12.1047 10.972C12.6823 10.2144 13.0712 9.33014 13.2393 8.39239C13.4073 7.45464 13.3496 6.49036 13.071 5.57932C12.7924 4.66829 12.3008 3.8367 11.637 3.15336C10.9732 2.47002 10.1562 1.95457 9.25359 1.64967C8.35101 1.34477 7.3888 1.25918 6.44657 1.39998C5.50435 1.54078 4.60919 1.90393 3.83518 2.45937C3.06116 3.01481 2.43054 3.74658 1.99549 4.59413C1.56043 5.44168 1.33345 6.38065 1.33333 7.33333ZM7.33333 13.3333C5.95597 13.3354 4.62018 12.8616 3.552 11.992C3.98195 11.3765 4.55422 10.8739 5.22013 10.5271C5.88603 10.1803 6.62586 9.99946 7.37667 10C8.11811 9.99941 8.84899 10.1757 9.50862 10.5143C10.1682 10.8528 10.7376 11.3439 11.1693 11.9467C10.0929 12.8445 8.73505 13.3353 7.33333 13.3333Z" fill="white"/>
</svg>
