<svg width="18" height="18" viewBox="0 0 18 18" fill="none" xmlns="http://www.w3.org/2000/svg">
<path d="M2.61891 6.04875L3.58341 14.25H14.4164L15.3809 6.04875L12.3734 8.0535L8.99991 3.33075L5.62641 8.0535L2.61891 6.04875ZM2.10066 3.9L5.24991 6L8.38941 1.605C8.45879 1.50778 8.55039 1.42853 8.65658 1.37385C8.76276 1.31918 8.88048 1.29065 8.99991 1.29065C9.11935 1.29065 9.23706 1.31918 9.34325 1.37385C9.44944 1.42853 9.54104 1.50778 9.61041 1.605L12.7499 6L15.8999 3.9C16.0191 3.82069 16.1586 3.77715 16.3017 3.77455C16.4449 3.77195 16.5858 3.81039 16.7078 3.88532C16.8298 3.96025 16.9279 4.06854 16.9903 4.1974C17.0527 4.32626 17.077 4.4703 17.0602 4.6125L15.8279 15.0878C15.8064 15.2702 15.7187 15.4384 15.5814 15.5605C15.4442 15.6825 15.2669 15.75 15.0832 15.75H2.91666C2.73296 15.75 2.55566 15.6825 2.41839 15.5605C2.28111 15.4384 2.19341 15.2702 2.17191 15.0878L0.939664 4.61175C0.923014 4.46961 0.947378 4.32568 1.00988 4.19694C1.07238 4.0682 1.17041 3.96003 1.2924 3.8852C1.41438 3.81036 1.55523 3.772 1.69832 3.77462C1.8414 3.77724 1.98075 3.82075 2.09991 3.9H2.10066ZM8.99991 11.25C8.60209 11.25 8.22056 11.092 7.93925 10.8107C7.65795 10.5294 7.49991 10.1478 7.49991 9.75C7.49991 9.35218 7.65795 8.97064 7.93925 8.68934C8.22056 8.40804 8.60209 8.25 8.99991 8.25C9.39774 8.25 9.77927 8.40804 10.0606 8.68934C10.3419 8.97064 10.4999 9.35218 10.4999 9.75C10.4999 10.1478 10.3419 10.5294 10.0606 10.8107C9.77927 11.092 9.39774 11.25 8.99991 11.25Z" fill="#E3B615"/>
</svg>
