<svg width="20" height="20" viewBox="0 0 20 20" fill="none" xmlns="http://www.w3.org/2000/svg">
<path d="M19.7997 1.24878L15.5307 8.70244C14.5041 7.57073 13.25 6.82927 11.7685 6.47805L14.751 1.24878C14.9459 0.910569 15.2318 0.617886 15.6087 0.370732C15.9856 0.123577 16.3494 0 16.7003 0H19.2149C19.5658 0 19.7997 0.123577 19.9167 0.370732C20.0336 0.617886 19.9947 0.910569 19.7997 1.24878ZM16.2325 13.7561C16.2325 14.8878 15.9563 15.9317 15.404 16.8878C14.8517 17.8439 14.0947 18.6016 13.1331 19.161C12.1714 19.7203 11.1253 20 9.99465 20C8.86405 20 7.81791 19.7203 6.85625 19.161C5.89459 18.6016 5.1376 17.8439 4.5853 16.8878C4.03299 15.9317 3.75684 14.8878 3.75684 13.7561C3.75684 12.6244 4.03299 11.5772 4.5853 10.6146C5.1376 9.65203 5.89459 8.89106 6.85625 8.33171C7.81791 7.77236 8.86405 7.49268 9.99465 7.49268C11.1253 7.49268 12.1714 7.77236 13.1331 8.33171C14.0947 8.89106 14.8517 9.65203 15.404 10.6146C15.9563 11.5772 16.2325 12.6244 16.2325 13.7561ZM9.99465 15.0049C10.6834 15.0049 11.2715 14.761 11.7588 14.2732C12.2461 13.7854 12.4898 13.1967 12.4898 12.5073C12.4898 11.8179 12.2461 11.226 11.7588 10.7317C11.2715 10.2374 10.6834 9.99024 9.99465 9.99024C9.30589 9.99024 8.71785 10.2374 8.23052 10.7317C7.74319 11.226 7.49953 11.8179 7.49953 12.5073C7.49953 12.6764 7.55801 12.8228 7.67496 12.9463C7.79192 13.0699 7.93812 13.1317 8.11356 13.1317C8.289 13.1317 8.43845 13.0699 8.5619 12.9463C8.68536 12.8228 8.74709 12.6764 8.74709 12.5073C8.74709 12.1561 8.8673 11.8602 9.10771 11.6195C9.34813 11.3789 9.64053 11.2585 9.98491 11.2585C10.3293 11.2585 10.6249 11.3789 10.8718 11.6195C11.1188 11.8602 11.2422 12.1528 11.2422 12.4976C11.2422 12.8423 11.1188 13.1382 10.8718 13.3854C10.6249 13.6325 10.3325 13.7561 9.99465 13.7561C9.30589 13.7561 8.71785 14 8.23052 14.4878C7.74319 14.9756 7.49953 15.5642 7.49953 16.2537V16.878C7.49953 17.0472 7.55801 17.1935 7.67496 17.3171C7.79192 17.4407 7.94137 17.5024 8.12331 17.5024H11.866C12.0349 17.5024 12.1811 17.4407 12.3046 17.3171C12.4281 17.1935 12.4898 17.0472 12.4898 16.878C12.4898 16.7089 12.4281 16.5626 12.3046 16.439C12.1811 16.3154 12.0349 16.2537 11.866 16.2537H8.74709C8.74709 15.9024 8.8673 15.6065 9.10771 15.3659C9.34813 15.1252 9.64378 15.0049 9.99465 15.0049ZM0.189584 1.24878C-0.0053473 0.910569 -0.0443337 0.617886 0.0726254 0.370732C0.189584 0.123577 0.423503 0 0.77438 0H3.289C3.63988 0 4.00375 0.123577 4.38062 0.370732C4.75749 0.617886 5.04339 0.910569 5.23832 1.24878L8.22077 6.47805C6.73929 6.82927 5.48523 7.57073 4.45859 8.70244L0.189584 1.24878Z" fill="#919191"/>
</svg>
