<svg width="15" height="15" viewBox="0 0 15 15" fill="none" xmlns="http://www.w3.org/2000/svg">
<path d="M12.8027 1.75781H9.11133C9.06299 1.75781 9.02344 1.79736 9.02344 1.8457V2.66602C9.02344 2.71436 9.06299 2.75391 9.11133 2.75391H11.4609L8.5415 5.67334C7.80908 5.10937 6.91553 4.80469 5.97656 4.80469C4.8501 4.80469 3.78955 5.24414 2.99414 6.04102C2.19873 6.83789 1.75781 7.89697 1.75781 9.02344C1.75781 10.1499 2.19727 11.2104 2.99414 12.0059C3.78955 12.8027 4.8501 13.2422 5.97656 13.2422C7.10303 13.2422 8.16357 12.8027 8.95898 12.0059C9.75586 11.2104 10.1953 10.1499 10.1953 9.02344C10.1953 8.08447 9.89062 7.19385 9.32812 6.46143L12.2461 3.54346V5.88867C12.2461 5.93701 12.2856 5.97656 12.334 5.97656H13.1543C13.2026 5.97656 13.2422 5.93701 13.2422 5.88867V2.19727C13.2422 1.95557 13.0444 1.75781 12.8027 1.75781ZM5.97656 12.1289C4.26416 12.1289 2.87109 10.7358 2.87109 9.02344C2.87109 7.31104 4.26416 5.91797 5.97656 5.91797C7.68896 5.91797 9.08203 7.31104 9.08203 9.02344C9.08203 10.7358 7.68896 12.1289 5.97656 12.1289Z" fill="#5FBEF4"/>
</svg>
