<svg width="16" height="14" viewBox="0 0 16 14" fill="none" xmlns="http://www.w3.org/2000/svg">
<path fill-rule="evenodd" clip-rule="evenodd" d="M3.214 0.182891C4.813 -0.137109 6.916 -0.179109 8.354 1.25689C8.4004 1.30341 8.43718 1.35862 8.46223 1.41936C8.48728 1.4801 8.50012 1.54519 8.5 1.61089V12.6109C8.50018 12.7099 8.47095 12.8068 8.41602 12.8891C8.36109 12.9715 8.28294 13.0358 8.19146 13.0737C8.09999 13.1116 7.99932 13.1215 7.90221 13.1021C7.8051 13.0828 7.71593 13.035 7.646 12.9649C6.803 12.1209 5.531 11.9059 4.176 12.0449C2.832 12.1849 1.516 12.6619 0.724 13.0579C0.647771 13.0961 0.56304 13.1142 0.47786 13.1104C0.392679 13.1066 0.309879 13.0811 0.237329 13.0363C0.164778 12.9915 0.104888 12.9289 0.0633488 12.8545C0.0218099 12.78 2.86113e-06 12.6962 0 12.6109L0 1.61089C3.11334e-06 1.51811 0.0258203 1.42716 0.0745635 1.34822C0.123307 1.26928 0.193053 1.20546 0.276 1.16389L0.5 1.61089L0.276 1.16389L0.278 1.16289L0.282 1.16089L0.295 1.15489C0.367491 1.11879 0.440846 1.08444 0.515 1.05189C1.38049 0.664299 2.28591 0.372887 3.215 0.182891H3.214ZM1 1.93089V11.8389C1.846 11.4959 2.944 11.1669 4.074 11.0509C5.217 10.9329 6.461 11.0279 7.5 11.6109V1.82889C6.437 0.899891 4.869 0.872891 3.41 1.16489C2.58185 1.33433 1.774 1.59109 1 1.93089Z" fill="white"/>
<path fill-rule="evenodd" clip-rule="evenodd" d="M12.786 0.182891C11.188 -0.137109 9.084 -0.179109 7.646 1.25689C7.5996 1.30341 7.56282 1.35862 7.53777 1.41936C7.51272 1.4801 7.49988 1.54519 7.5 1.61089V12.6109C7.49982 12.7099 7.52905 12.8068 7.58398 12.8891C7.63891 12.9715 7.71706 13.0358 7.80854 13.0737C7.90001 13.1116 8.00068 13.1215 8.09779 13.1021C8.1949 13.0828 8.28407 13.035 8.354 12.9649C9.197 12.1209 10.469 11.9059 11.824 12.0449C13.168 12.1849 14.484 12.6619 15.276 13.0579C15.3522 13.0961 15.437 13.1142 15.5221 13.1104C15.6073 13.1066 15.6901 13.0811 15.7627 13.0363C15.8352 12.9915 15.8951 12.9289 15.9367 12.8545C15.9782 12.78 16 12.6962 16 12.6109V1.61089C16 1.51811 15.9742 1.42716 15.9254 1.34822C15.8767 1.26928 15.8069 1.20546 15.724 1.16389L15.5 1.61089L15.724 1.16389L15.722 1.16289L15.718 1.16089L15.705 1.15489L15.658 1.13189C15.3957 1.0094 15.1292 0.895997 14.859 0.791891C14.1862 0.531545 13.4927 0.327837 12.786 0.182891ZM15 1.93089V11.8389C14.154 11.4959 13.056 11.1669 11.926 11.0509C10.783 10.9329 9.539 11.0279 8.5 11.6109V1.82889C9.563 0.899891 11.131 0.872891 12.59 1.16489C13.4182 1.33431 14.226 1.59108 15 1.93089Z" fill="white"/>
</svg>
