<svg width="20" height="20" viewBox="0 0 20 20" fill="none" xmlns="http://www.w3.org/2000/svg">
<path d="M19.8 1.24878L15.531 8.70244C14.5043 7.57073 13.2503 6.82927 11.7688 6.47805L14.7512 1.24878C14.9462 0.910569 15.2321 0.617886 15.6089 0.370732C15.9858 0.123577 16.3497 0 16.7006 0H19.2152C19.566 0 19.8 0.123577 19.9169 0.370732C20.0339 0.617886 19.9949 0.910569 19.8 1.24878ZM16.2327 13.7561C16.2327 14.8878 15.9566 15.9317 15.4043 16.8878C14.8519 17.8439 14.095 18.6016 13.1333 19.161C12.1716 19.7203 11.1255 20 9.9949 20C8.86429 20 7.81816 19.7203 6.8565 19.161C5.89483 18.6016 5.13785 17.8439 4.58554 16.8878C4.03323 15.9317 3.75708 14.8878 3.75708 13.7561C3.75708 12.6244 4.03323 11.5772 4.58554 10.6146C5.13785 9.65203 5.89483 8.89106 6.8565 8.33171C7.81816 7.77236 8.86429 7.49268 9.9949 7.49268C11.1255 7.49268 12.1716 7.77236 13.1333 8.33171C14.095 8.89106 14.8519 9.65203 15.4043 10.6146C15.9566 11.5772 16.2327 12.6244 16.2327 13.7561ZM12.49 11.8829C12.49 11.2325 12.2626 10.7545 11.8078 10.4488C11.3529 10.1431 10.7486 9.99024 9.9949 9.99024H8.12355C7.95461 9.99024 7.80841 10.052 7.68496 10.1756C7.5615 10.2992 7.49977 10.4488 7.49977 10.6244C7.49977 10.8 7.5615 10.9496 7.68496 11.0732C7.80841 11.1967 7.95461 11.2585 8.12355 11.2585H9.9949C10.0339 11.2585 10.0924 11.252 10.1703 11.239C10.3653 11.239 10.5082 11.2423 10.5992 11.2488C10.6902 11.2553 10.7974 11.278 10.9208 11.3171C11.0443 11.3561 11.1288 11.4211 11.1742 11.5122C11.2197 11.6033 11.2425 11.7236 11.2425 11.8732C11.2425 12.0228 11.2197 12.1431 11.1742 12.2341C11.1288 12.3252 11.0443 12.3902 10.9208 12.4293C10.7974 12.4683 10.6902 12.4911 10.5992 12.4976C10.5082 12.5041 10.3653 12.5073 10.1703 12.5073H9.37112C9.20218 12.5073 9.05598 12.5659 8.93252 12.6829C8.80906 12.8 8.74733 12.9463 8.74733 13.122C8.74733 13.2976 8.80906 13.4472 8.93252 13.5707C9.05598 13.6943 9.20218 13.7561 9.37112 13.7561H9.9949C10.3458 13.7561 10.6414 13.8764 10.8818 14.1171C11.1223 14.3577 11.2425 14.6504 11.2425 14.9951C11.2425 15.3398 11.1223 15.6358 10.8818 15.8829C10.6414 16.1301 10.3458 16.2537 9.9949 16.2537H8.12355C7.95461 16.2537 7.80841 16.3154 7.68496 16.439C7.5615 16.5626 7.49977 16.7089 7.49977 16.878C7.49977 17.0472 7.5615 17.1935 7.68496 17.3171C7.80841 17.4407 7.95461 17.5024 8.12355 17.5024H9.9949C10.6837 17.5024 11.2717 17.2585 11.759 16.7707C12.2464 16.2829 12.49 15.6943 12.49 15.0049C12.49 14.2504 12.2041 13.626 11.6323 13.1317C11.7103 13.0667 11.824 12.9756 11.9735 12.8585C12.1229 12.7415 12.2236 12.6569 12.2756 12.6049C12.3276 12.5528 12.3763 12.4618 12.4218 12.3317C12.4673 12.2016 12.49 12.052 12.49 11.8829ZM0.189829 1.24878C-0.00510316 0.910569 -0.0440895 0.617886 0.0728696 0.370732C0.189829 0.123577 0.423747 0 0.774624 0H3.28924C3.64012 0 4.00399 0.123577 4.38086 0.370732C4.75773 0.617886 5.04363 0.910569 5.23856 1.24878L8.22102 6.47805C6.73954 6.82927 5.48548 7.57073 4.45884 8.70244L0.189829 1.24878Z" fill="#956E34"/>
</svg>
