<svg width="38" height="38" viewBox="0 0 38 38" fill="none" xmlns="http://www.w3.org/2000/svg">
<path d="M19 38C29.4934 38 38 29.4934 38 19C38 8.50659 29.4934 0 19 0C8.50659 0 0 8.50659 0 19C0 29.4934 8.50659 38 19 38Z" fill="#F0F0F0"/>
<path d="M3.92766 7.43243C2.4352 9.37422 1.30982 11.6123 0.654541 14.0436H10.5388L3.92766 7.43243Z" fill="#0052B4"/>
<path d="M37.3456 14.0436C36.6903 11.6124 35.5648 9.37428 34.0725 7.4325L27.4614 14.0436H37.3456Z" fill="#0052B4"/>
<path d="M0.654541 23.9566C1.30989 26.3879 2.43527 28.626 3.92766 30.5677L10.5386 23.9566H0.654541Z" fill="#0052B4"/>
<path d="M30.5677 3.92774C28.6259 2.43527 26.3879 1.30989 23.9565 0.654541V10.5388L30.5677 3.92774Z" fill="#0052B4"/>
<path d="M7.43237 34.0723C9.37416 35.5647 11.6122 36.6901 14.0435 37.3455V27.4613L7.43237 34.0723Z" fill="#0052B4"/>
<path d="M14.0434 0.654541C11.6122 1.30989 9.37408 2.43527 7.43237 3.92766L14.0434 10.5387V0.654541Z" fill="#0052B4"/>
<path d="M23.9565 37.3455C26.3878 36.6901 28.6259 35.5647 30.5676 34.0723L23.9565 27.4613V37.3455Z" fill="#0052B4"/>
<path d="M27.4614 23.9566L34.0725 30.5677C35.5648 28.626 36.6903 26.3879 37.3456 23.9566H27.4614Z" fill="#0052B4"/>
<path d="M37.8392 16.5218H21.4784H21.4783V0.160832C20.667 0.0552188 19.8399 0 19 0C18.1599 0 17.333 0.0552188 16.5218 0.160832V16.5216V16.5217H0.160832C0.0552188 17.333 0 18.1601 0 19C0 19.8401 0.0552188 20.667 0.160832 21.4782H16.5216H16.5217V37.8392C17.333 37.9448 18.1599 38 19 38C19.8399 38 20.667 37.9449 21.4782 37.8392V21.4784V21.4783H37.8392C37.9448 20.667 38 19.8401 38 19C38 18.1601 37.9448 17.333 37.8392 16.5218Z" fill="#D80027"/>
<path d="M23.9565 23.9566L32.435 32.4351C32.8249 32.0453 33.1969 31.6377 33.5518 31.2153L26.2931 23.9565H23.9565V23.9566Z" fill="#D80027"/>
<path d="M14.0435 23.9566H14.0433L5.56494 32.435C5.95474 32.825 6.36227 33.1969 6.78473 33.5519L14.0435 26.293V23.9566Z" fill="#D80027"/>
<path d="M14.0434 14.0436V14.0434L5.56496 5.56491C5.17502 5.95471 4.80303 6.36224 4.44812 6.7847L11.7069 14.0435H14.0434V14.0436Z" fill="#D80027"/>
<path d="M23.9565 14.0436L32.4351 5.56501C32.0453 5.17507 31.6377 4.80308 31.2153 4.44824L23.9565 11.7071V14.0436Z" fill="#D80027"/>
</svg>
